<svg width="89" height="80" viewBox="0 0 89 80" fill="none" xmlns="http://www.w3.org/2000/svg">
<path d="M6.82333 13.884H72.1889L65.6128 5.99266C65.293 5.67622 64.9272 5.42241 64.5151 5.23122C64.1031 5.04004 63.6746 4.94444 63.2296 4.94444H15.7827C15.341 4.94444 14.9124 5.04004 14.4971 5.23122C14.0818 5.42241 13.7192 5.67622 13.4093 5.99266L6.82333 13.884ZM29.6667 44.3121L39.5556 39.3677L49.4444 44.3121V18.8284H29.6667V44.3121ZM7.99022 79.1111C5.77511 79.1111 3.88963 78.3332 2.33378 76.7773C0.777926 75.2215 0 73.3376 0 71.1258V17.2363C0 16.2738 0.153277 15.3673 0.459833 14.5169C0.766389 13.6664 1.22787 12.8836 1.84428 12.1683L9.54772 2.92217C10.263 1.95635 11.158 1.22787 12.2326 0.736723C13.3071 0.245575 14.4592 0 15.6887 0H63.2345C64.4607 0 65.6276 0.245575 66.7352 0.736723C67.8427 1.22787 68.7542 1.9547 69.4694 2.91722L77.2668 12.3611C77.8832 13.0764 78.3447 13.8758 78.6513 14.7592C78.9578 15.6393 79.1111 16.5622 79.1111 17.528V28.9992C78.2046 29.0651 77.3509 29.1739 76.5499 29.3255C75.7489 29.4771 74.9545 29.7013 74.1667 29.9979V18.8235H54.3889V47.7831L51.3382 50.8338L39.5556 44.9747L24.7222 52.3913V18.8284H4.94444V71.1258C4.94444 72.0125 5.22957 72.741 5.79983 73.3112C6.37009 73.8815 7.10022 74.1666 7.99022 74.1666H38.7941V79.1111H7.99022ZM50.5817 79.1111V68.1839L76.9553 41.9437C77.4432 41.4559 77.9492 41.1262 78.4733 40.9548C79.0007 40.7834 79.5281 40.6977 80.0555 40.6977C80.5994 40.6977 81.1499 40.8032 81.7069 41.0142C82.2673 41.2284 82.7585 41.5482 83.1804 41.9734L87.754 46.6409C88.1594 47.1288 88.4677 47.6364 88.6786 48.1638C88.8929 48.6879 89 49.2137 89 49.7411C89 50.2685 88.8995 50.7992 88.6984 51.3332C88.4973 51.8672 88.1825 52.3781 87.754 52.866L61.5089 79.1111H50.5817ZM54.9624 74.7402H59.6597L76.8021 57.5632L74.4782 55.2146L72.2284 52.8017L54.9624 70.043V74.7402ZM74.4782 55.2146L72.2284 52.8017L76.8021 57.5632L74.4782 55.2146Z" fill="#5986E7"/>
</svg>
