<svg width="100" height="100" viewBox="0 0 100 100" fill="none" xmlns="http://www.w3.org/2000/svg">
<path d="M46.3774 26.8266L31.2023 35.2502C30.0188 35.9106 29.0335 36.8755 28.3485 38.045C27.6636 39.2145 27.304 40.5459 27.307 41.9012V58.2419C27.304 59.5972 27.6636 60.9286 28.3485 62.0981C29.0335 63.2676 30.0188 64.2325 31.2023 64.8929L46.3774 73.3165C47.5072 73.9452 48.7787 74.2752 50.0716 74.2752C51.3645 74.2752 52.636 73.9452 53.7657 73.3165L68.9409 64.8929C70.1244 64.2325 71.1097 63.2676 71.7946 62.0981C72.4796 60.9286 72.8392 59.5972 72.8361 58.2419V41.9012C72.8392 40.5459 72.4796 39.2145 71.7946 38.045C71.1097 36.8755 70.1244 35.9106 68.9409 35.2502L53.7657 26.8266C52.636 26.1979 51.3645 25.8679 50.0716 25.8679C48.7787 25.8679 47.5072 26.1979 46.3774 26.8266Z" stroke="black" stroke-opacity="0.2" stroke-width="3"/>
<path d="M71.2944 37.3245L50.0716 50.0716M50.0716 50.0716L28.8488 37.3245M50.0716 50.0716V74.255" stroke="black" stroke-opacity="0.2" stroke-width="4"/>
<path d="M84.5182 34.7624V27.106C84.5182 24.061 83.3086 21.1408 81.1555 18.9877C79.0024 16.8346 76.0822 15.625 73.0372 15.625H61.5526M61.5526 84.5182H73.0372C76.0822 84.5182 79.0024 83.3086 81.1555 81.1555C83.3086 79.0024 84.5182 76.0822 84.5182 73.0372V65.3771M15.625 65.3808V73.0372C15.625 76.0822 16.8346 79.0024 18.9877 81.1555C21.1408 83.3086 24.061 84.5182 27.106 84.5182H38.5906M38.5906 15.625H27.106C24.061 15.625 21.1408 16.8346 18.9877 18.9877C16.8346 21.1408 15.625 24.061 15.625 27.106V34.7661" stroke="black" stroke-opacity="0.2" stroke-width="4" stroke-linecap="round" stroke-linejoin="round"/>
</svg>
