<svg width="21" height="20" viewBox="0 0 21 20" fill="none" xmlns="http://www.w3.org/2000/svg">
<path d="M4.79922 2.2L3.49922 3.93334C3.24173 4.27665 3.11299 4.44831 3.11598 4.592C3.11858 4.71704 3.17721 4.8343 3.27568 4.9114C3.38883 5 3.60341 5 4.03255 5H16.3659C16.795 5 17.0096 5 17.1228 4.9114C17.2212 4.8343 17.2799 4.71704 17.2825 4.592C17.2854 4.44831 17.1567 4.27665 16.8992 3.93334L15.5992 2.2M4.79922 2.2C4.94588 2.00445 5.01922 1.90667 5.11216 1.83615C5.19447 1.77369 5.28768 1.72709 5.38704 1.69871C5.49922 1.66667 5.62144 1.66667 5.86589 1.66667H14.5326C14.777 1.66667 14.8992 1.66667 15.0114 1.69871C15.1108 1.72709 15.204 1.77369 15.2863 1.83615C15.3792 1.90667 15.4526 2.00445 15.5992 2.2M4.79922 2.2L3.23255 4.28889C3.03467 4.55274 2.93573 4.68466 2.86547 4.82994C2.80312 4.95885 2.75765 5.09527 2.73018 5.2358C2.69922 5.39418 2.69922 5.55909 2.69922 5.88889L2.69922 15.6667C2.69922 16.6001 2.69922 17.0668 2.88087 17.4233C3.04066 17.7369 3.29563 17.9919 3.60923 18.1517C3.96575 18.3333 4.43246 18.3333 5.36589 18.3333L15.0326 18.3333C15.966 18.3333 16.4327 18.3333 16.7892 18.1517C17.1028 17.9919 17.3578 17.7369 17.5176 17.4233C17.6992 17.0668 17.6992 16.6001 17.6992 15.6667V5.88889C17.6992 5.55909 17.6992 5.39418 17.6683 5.2358C17.6408 5.09527 17.5953 4.95886 17.533 4.82994C17.4627 4.68466 17.3638 4.55274 17.1659 4.28889L15.5992 2.2M13.5326 8.33334C13.5326 9.21739 13.1814 10.0652 12.5562 10.6904C11.9311 11.3155 11.0833 11.6667 10.1992 11.6667C9.31516 11.6667 8.46732 11.3155 7.8422 10.6904C7.21707 10.0652 6.86589 9.21739 6.86589 8.33334" stroke="white" stroke-width="1.66667" stroke-linecap="round" stroke-linejoin="round"/>
</svg>
