<svg width="21" height="20" viewBox="0 0 21 20" fill="none" xmlns="http://www.w3.org/2000/svg">
<path d="M4.8002 2.2L3.5002 3.93334C3.24271 4.27665 3.11396 4.44831 3.11695 4.592C3.11955 4.71704 3.17818 4.8343 3.27665 4.9114C3.38981 5 3.60438 5 4.03353 5H16.3669C16.796 5 17.0106 5 17.1237 4.9114C17.2222 4.8343 17.2808 4.71704 17.2834 4.592C17.2864 4.44831 17.1577 4.27665 16.9002 3.93334L15.6002 2.2M4.8002 2.2C4.94686 2.00445 5.02019 1.90667 5.11313 1.83615C5.19545 1.77369 5.28866 1.72709 5.38802 1.69871C5.5002 1.66667 5.62242 1.66667 5.86686 1.66667H14.5335C14.778 1.66667 14.9002 1.66667 15.0124 1.69871C15.1117 1.72709 15.2049 1.77369 15.2873 1.83615C15.3802 1.90667 15.4535 2.00445 15.6002 2.2M4.8002 2.2L3.23353 4.28889C3.03564 4.55274 2.9367 4.68466 2.86644 4.82994C2.8041 4.95885 2.75863 5.09527 2.73116 5.2358C2.7002 5.39418 2.7002 5.55909 2.7002 5.88889L2.7002 15.6667C2.7002 16.6001 2.7002 17.0668 2.88185 17.4233C3.04164 17.7369 3.29661 17.9919 3.61021 18.1517C3.96673 18.3333 4.43344 18.3333 5.36686 18.3333L15.0335 18.3333C15.9669 18.3333 16.4337 18.3333 16.7902 18.1517C17.1038 17.9919 17.3588 17.7369 17.5185 17.4233C17.7002 17.0668 17.7002 16.6001 17.7002 15.6667V5.88889C17.7002 5.55909 17.7002 5.39418 17.6692 5.2358C17.6418 5.09527 17.5963 4.95886 17.5339 4.82994C17.4637 4.68466 17.3647 4.55274 17.1669 4.28889L15.6002 2.2M13.5335 8.33334C13.5335 9.21739 13.1823 10.0652 12.5572 10.6904C11.9321 11.3155 11.0843 11.6667 10.2002 11.6667C9.31614 11.6667 8.46829 11.3155 7.84317 10.6904C7.21805 10.0652 6.86686 9.21739 6.86686 8.33334" stroke="#344054" stroke-width="1.66667" stroke-linecap="round" stroke-linejoin="round"/>
</svg>
