<svg width="27" height="27" viewBox="0 0 27 27" fill="none" xmlns="http://www.w3.org/2000/svg">
<path d="M20.251 2.25H14.626C14.626 2.86875 14.1197 3.375 13.501 3.375C12.8822 3.375 12.376 2.86875 12.376 2.25H6.75098C5.51348 2.25 4.50098 3.2625 4.50098 4.5V22.5C4.50098 23.7375 5.51348 24.75 6.75098 24.75H20.251C21.4885 24.75 22.501 23.7375 22.501 22.5V4.5C22.501 3.2625 21.4885 2.25 20.251 2.25Z" fill="#344054"/>
<path d="M20.251 23.0625H6.75098C6.41348 23.0625 6.18848 22.8375 6.18848 22.5V4.5C6.18848 4.1625 6.41348 3.9375 6.75098 3.9375H20.251C20.5885 3.9375 20.8135 4.1625 20.8135 4.5V22.5C20.8135 22.8375 20.5885 23.0625 20.251 23.0625Z" fill="white"/>
<path d="M14.626 2.25C14.626 2.86875 14.1197 3.375 13.501 3.375C12.8822 3.375 12.376 2.86875 12.376 2.25H8.43848V4.5C8.43848 5.11875 8.94473 5.625 9.56348 5.625H17.4385C18.0572 5.625 18.5635 5.11875 18.5635 4.5V2.25H14.626Z" fill="#344054"/>
<path d="M13.501 0C12.2635 0 11.251 1.0125 11.251 2.25C11.251 3.4875 12.2635 4.5 13.501 4.5C14.7385 4.5 15.751 3.4875 15.751 2.25C15.751 1.0125 14.7385 0 13.501 0ZM13.501 3.375C12.8822 3.375 12.376 2.86875 12.376 2.25C12.376 1.63125 12.8822 1.125 13.501 1.125C14.1197 1.125 14.626 1.63125 14.626 2.25C14.626 2.86875 14.1197 3.375 13.501 3.375Z" fill="#344054"/>
<path d="M17.2131 10.4625L12.1506 15.525L9.78809 13.1062L8.38184 14.5125L12.2068 18.2812L18.6193 11.8687L17.2131 10.4625Z" fill="#344054"/>
</svg>
