<svg width="32" height="30" viewBox="0 0 32 30" fill="none" xmlns="http://www.w3.org/2000/svg">
<path fill-rule="evenodd" clip-rule="evenodd" d="M15.3331 5C11.8011 5 8.98514 7.975 9.36914 11.25C9.40472 11.5533 9.32195 11.8583 9.13616 12.1088C8.95036 12.3593 8.6741 12.5382 8.35848 12.6125C7.41572 12.839 6.59328 13.3797 6.04502 14.1336C5.49676 14.8874 5.26024 15.8027 5.3797 16.7082C5.49917 17.6137 5.96644 18.4473 6.69409 19.0532C7.42175 19.6591 8.35994 19.9957 9.33314 20H10.6665C11.0201 20 11.3592 20.1317 11.6093 20.3661C11.8593 20.6005 11.9998 20.9185 11.9998 21.25C11.9998 21.5815 11.8593 21.8995 11.6093 22.1339C11.3592 22.3683 11.0201 22.5 10.6665 22.5H9.33314C7.80076 22.5009 6.31481 22.0069 5.1254 21.1011C3.93599 20.1954 3.11574 18.9331 2.8027 17.5268C2.48967 16.1204 2.70296 14.656 3.40668 13.3798C4.1104 12.1036 5.26159 11.0937 6.66648 10.52C6.69056 8.62492 7.42053 6.79735 8.73008 5.35353C10.0396 3.90971 11.8463 2.9405 13.8376 2.61359C15.8289 2.28668 17.8794 2.62266 19.6343 3.56337C21.3893 4.50409 22.7383 5.99036 23.4478 7.765C25.3135 8.24737 26.9296 9.34727 27.9967 10.861C29.0638 12.3747 29.5095 14.1997 29.2515 15.9979C28.9934 17.7961 28.049 19.4457 26.5931 20.6412C25.1372 21.8367 23.2685 22.4971 21.3331 22.5C20.9795 22.5 20.6404 22.3683 20.3903 22.1339C20.1403 21.8995 19.9998 21.5815 19.9998 21.25C19.9998 20.9185 20.1403 20.6005 20.3903 20.3661C20.6404 20.1317 20.9795 20 21.3331 20C22.6732 20.0019 23.9649 19.5308 24.9513 18.6804C25.9376 17.8301 26.5464 16.6628 26.6565 15.4107C26.7666 14.1587 26.3699 12.9137 25.5453 11.9234C24.7207 10.9331 23.5288 10.2701 22.2065 10.0663C21.9519 10.0268 21.7147 9.91956 21.5232 9.75734C21.3318 9.59513 21.1941 9.38475 21.1265 9.15125C20.7812 7.95886 20.0267 6.90622 18.9796 6.15592C17.9325 5.40562 16.6511 4.9994 15.3331 5ZM17.3331 15.52L19.0571 17.135C19.1811 17.2511 19.3282 17.3431 19.4902 17.4058C19.6521 17.4686 19.8256 17.5008 20.0007 17.5007C20.1759 17.5006 20.3494 17.4681 20.5112 17.4052C20.673 17.3422 20.82 17.25 20.9438 17.1337C21.0676 17.0175 21.1658 16.8796 21.2327 16.7278C21.2996 16.576 21.334 16.4134 21.3339 16.2491C21.3338 16.0849 21.2991 15.9223 21.232 15.7706C21.1648 15.6189 21.0664 15.4811 20.9425 15.365L17.1771 11.8412C16.8647 11.5489 16.4413 11.3847 15.9998 11.3847C15.5584 11.3847 15.1349 11.5489 14.8225 11.8412L11.0571 15.3663C10.807 15.6006 10.6663 15.9186 10.6662 16.2502C10.6661 16.5818 10.8065 16.8998 11.0565 17.1344C11.3065 17.3689 11.6456 17.5008 11.9993 17.5009C12.353 17.501 12.6923 17.3694 12.9425 17.135L14.6665 15.52V26.25C14.6665 26.5815 14.807 26.8995 15.057 27.1339C15.307 27.3683 15.6462 27.5 15.9998 27.5C16.3534 27.5 16.6926 27.3683 16.9426 27.1339C17.1927 26.8995 17.3331 26.5815 17.3331 26.25V15.52Z" fill="white"/>
</svg>
