<svg width="28" height="28" viewBox="0 0 28 28" fill="none" xmlns="http://www.w3.org/2000/svg">
<path fill-rule="evenodd" clip-rule="evenodd" d="M13.3331 3C9.80114 3 6.98514 5.975 7.36914 9.25C7.40472 9.55326 7.32195 9.85833 7.13616 10.1088C6.95036 10.3593 6.67411 10.5382 6.35848 10.6125C5.41572 10.839 4.59328 11.3797 4.04502 12.1336C3.49676 12.8874 3.26024 13.8027 3.3797 14.7082C3.49917 15.6137 3.96644 16.4473 4.69409 17.0532C5.42175 17.6591 6.35994 17.9957 7.33314 18H8.66648C9.0201 18 9.35924 18.1317 9.60929 18.3661C9.85933 18.6005 9.99981 18.9185 9.99981 19.25C9.99981 19.5815 9.85933 19.8995 9.60929 20.1339C9.35924 20.3683 9.0201 20.5 8.66648 20.5H7.33314C5.80076 20.5009 4.31481 20.0069 3.1254 19.1011C1.93599 18.1954 1.11574 16.9331 0.802703 15.5268C0.489667 14.1204 0.702959 12.656 1.40668 11.3798C2.1104 10.1036 3.26159 9.09371 4.66648 8.52C4.69056 6.62492 5.42054 4.79735 6.73008 3.35353C8.03963 1.90971 9.84635 0.940497 11.8376 0.61359C13.8289 0.286683 15.8794 0.622656 17.6343 1.56337C19.3893 2.50409 20.7383 3.99036 21.4478 5.765C23.3135 6.24737 24.9296 7.34728 25.9967 8.861C27.0638 10.3747 27.5095 12.1997 27.2515 13.9979C26.9934 15.7961 26.049 17.4457 24.5931 18.6412C23.1372 19.8367 21.2685 20.4971 19.3331 20.5C18.9795 20.5 18.6404 20.3683 18.3903 20.1339C18.1403 19.8995 17.9998 19.5815 17.9998 19.25C17.9998 18.9185 18.1403 18.6005 18.3903 18.3661C18.6404 18.1317 18.9795 18 19.3331 18C20.6732 18.0019 21.9649 17.5308 22.9513 16.6804C23.9376 15.8301 24.5464 14.6628 24.6565 13.4107C24.7666 12.1587 24.3699 10.9137 23.5453 9.92337C22.7208 8.93308 21.5288 8.27007 20.2065 8.06625C19.9519 8.02678 19.7147 7.91956 19.5232 7.75734C19.3318 7.59513 19.1941 7.38475 19.1265 7.15125C18.7812 5.95886 18.0267 4.90622 16.9796 4.15592C15.9325 3.40562 14.6511 2.9994 13.3331 3ZM15.3331 13.52L17.0571 15.135C17.1811 15.2511 17.3282 15.3431 17.4902 15.4058C17.6521 15.4686 17.8256 15.5008 18.0008 15.5007C18.1759 15.5006 18.3494 15.4681 18.5112 15.4052C18.673 15.3422 18.82 15.25 18.9438 15.1338C19.0676 15.0175 19.1658 14.8796 19.2327 14.7278C19.2996 14.576 19.334 14.4134 19.3339 14.2491C19.3338 14.0849 19.2991 13.9223 19.232 13.7706C19.1648 13.6189 19.0664 13.4811 18.9425 13.365L15.1771 9.84125C14.8647 9.5489 14.4413 9.38471 13.9998 9.38471C13.5584 9.38471 13.1349 9.5489 12.8225 9.84125L9.05714 13.3663C8.80696 13.6006 8.66633 13.9186 8.66621 14.2502C8.66608 14.5818 8.80647 14.8998 9.05648 15.1344C9.30649 15.3689 9.64565 15.5008 9.99934 15.5009C10.353 15.501 10.6923 15.3694 10.9425 15.135L12.6665 13.52V24.25C12.6665 24.5815 12.807 24.8995 13.057 25.1339C13.3071 25.3683 13.6462 25.5 13.9998 25.5C14.3534 25.5 14.6926 25.3683 14.9426 25.1339C15.1927 24.8995 15.3331 24.5815 15.3331 24.25V13.52Z" fill="#344054"/>
</svg>
