<svg width="21" height="20" viewBox="0 0 21 20" fill="none" xmlns="http://www.w3.org/2000/svg">
<path d="M17.4661 10.4167V5.66667C17.4661 4.26654 17.4661 3.56647 17.1937 3.0317C16.954 2.56129 16.5715 2.17884 16.1011 1.93916C15.5663 1.66667 14.8663 1.66667 13.4661 1.66667H8.13281C6.73268 1.66667 6.03262 1.66667 5.49784 1.93916C5.02743 2.17884 4.64498 2.56129 4.4053 3.0317C4.13281 3.56647 4.13281 4.26654 4.13281 5.66667V14.3333C4.13281 15.7335 4.13281 16.4335 4.4053 16.9683C4.64498 17.4387 5.02743 17.8212 5.49784 18.0609C6.03262 18.3333 6.73268 18.3333 8.13281 18.3333H10.7995M12.4661 9.16667H7.46615M9.13281 12.5H7.46615M14.1328 5.83334H7.46615M12.8828 15.8333L14.5495 17.5L18.2995 13.75" stroke="#344054" stroke-width="1.66667" stroke-linecap="round" stroke-linejoin="round"/>
</svg>
